<svg width="120" height="103" viewBox="0 0 120 103" fill="none" xmlns="http://www.w3.org/2000/svg">
<circle cx="97" cy="23" r="21.5" stroke="#5E6EFF" stroke-width="3"/>
<circle cx="61" cy="80" r="23" fill="#FFA51E"/>
<circle cx="23" cy="23" r="21.5" stroke="#FFA51E" stroke-width="3"/>
<path d="M52.1674 54.1388C52.7197 54.1388 53.1674 53.6911 53.1674 53.1388L53.1674 44.1388C53.1674 43.5865 52.7197 43.1388 52.1674 43.1388C51.6151 43.1388 51.1674 43.5865 51.1674 44.1388L51.1674 52.1388L43.1674 52.1388C42.6151 52.1388 42.1674 52.5865 42.1674 53.1388C42.1674 53.6911 42.6151 54.1388 43.1674 54.1388L52.1674 54.1388ZM23.1672 25.5528L51.4603 53.8459L52.8745 52.4317L24.5814 24.1386L23.1672 25.5528Z" fill="black"/>
<path d="M69.2926 53.5597C69.2926 54.112 69.7403 54.5597 70.2926 54.5597L79.2926 54.5597C79.8449 54.5597 80.2926 54.112 80.2926 53.5597C80.2926 53.0074 79.8449 52.5597 79.2926 52.5597L71.2926 52.5597L71.2926 44.5597C71.2926 44.0074 70.8449 43.5597 70.2926 43.5597C69.7403 43.5597 69.2926 44.0074 69.2926 44.5597L69.2926 53.5597ZM97.8786 24.5595L69.5855 52.8526L70.9997 54.2668L99.2928 25.9737L97.8786 24.5595Z" fill="black"/>
</svg>