<?xml version="1.0" standalone="no"?>
<!DOCTYPE svg PUBLIC "-//W3C//DTD SVG 20010904//EN"
 "http://www.w3.org/TR/2001/REC-SVG-20010904/DTD/svg10.dtd">
<svg version="1.0" xmlns="http://www.w3.org/2000/svg"
 width="87.000000pt" height="104.000000pt" viewBox="0 0 87.000000 104.000000"
 preserveAspectRatio="xMidYMid meet">

<g transform="translate(0.000000,104.000000) scale(0.100000,-0.100000)"
fill="#f15a22" stroke="none">
<path d="M208 1029 c-72 -11 -146 -56 -171 -104 -20 -37 -22 -58 -25 -257 l-4
-218 70 0 70 0 4 205 3 205 28 27 c23 23 36 28 77 28 41 0 54 -5 77 -28 l28
-27 3 -205 3 -205 70 0 69 0 0 194 c0 107 4 206 10 220 21 57 128 73 174 27
20 -20 21 -35 26 -217 6 -226 6 -227 95 -222 l50 3 0 205 c0 216 -6 249 -49
299 -62 70 -233 96 -326 48 l-45 -22 -50 21 c-60 26 -123 34 -187 23z"/>
<path d="M24 303 c13 -100 82 -195 173 -242 203 -103 486 -57 599 98 31 43 44
79 59 159 l7 32 -71 0 c-69 0 -71 -1 -77 -27 -22 -103 -84 -152 -217 -174 -94
-15 -219 16 -281 70 -24 21 -56 84 -56 111 0 18 -6 20 -71 20 l-72 0 7 -47z"/>
</g>
</svg>
