<svg width="26" height="30" viewBox="0 0 26 30" fill="none" xmlns="http://www.w3.org/2000/svg">
<path d="M5.83669 0.140144C3.73548 0.461163 1.57591 1.77442 0.84632 3.17522C0.262651 4.25501 0.204284 4.86786 0.116734 10.6754L0 17.0374H2.04284H4.08568L4.20241 11.0547L4.28996 5.07215L5.1071 4.28419C5.77832 3.61297 6.1577 3.46706 7.35423 3.46706C8.55075 3.46706 8.93013 3.61297 9.60135 4.28419L10.4185 5.07215L10.506 11.0547L10.5936 17.0374H12.6364H14.6501V11.3758C14.6501 8.25314 14.7668 5.36398 14.9419 4.95541C15.5548 3.29196 18.6774 2.82502 20.0198 4.16746C20.6035 4.75113 20.6327 5.18888 20.7786 10.5003C20.9537 17.0957 20.9537 17.1249 23.551 16.979L25.0102 16.8914V10.9088C25.0102 4.60521 24.8351 3.64216 23.5802 2.18299C21.7708 0.140144 16.7805 -0.618624 14.0664 0.782181L12.7532 1.42422L11.294 0.811363C9.54298 0.0525951 7.70443 -0.180872 5.83669 0.140144Z" fill="#FFA51E"/>
<path d="M0.466979 21.3273C0.846364 24.2456 2.86002 27.018 5.51571 28.3897C11.44 31.3956 19.6989 30.0531 22.9966 25.5297C23.9013 24.2748 24.2807 23.2242 24.7184 20.8895L24.9227 19.9557H22.8507C20.837 19.9557 20.7787 19.9848 20.6035 20.7436C19.9615 23.7495 18.1521 25.1795 14.2707 25.8215C11.5275 26.2593 7.87957 25.3546 6.0702 23.7787C5.3698 23.1658 4.43593 21.3273 4.43593 20.5393C4.43593 20.014 4.26083 19.9557 2.3639 19.9557H0.262695L0.466979 21.3273Z" fill="#FFA51E"/>
</svg>