<svg width="118" height="115" viewBox="0 0 118 115" fill="none" xmlns="http://www.w3.org/2000/svg">
<circle cx="94" cy="92" r="23" fill="#FFA51E"/>
<path d="M0.292893 94.2929C-0.097631 94.6834 -0.0976311 95.3166 0.292893 95.7071L6.65685 102.071C7.04738 102.462 7.68054 102.462 8.07107 102.071C8.46159 101.681 8.46159 101.047 8.07107 100.657L2.41421 95L8.07107 89.3431C8.46159 88.9526 8.46159 88.3195 8.07107 87.9289C7.68054 87.5384 7.04738 87.5384 6.65685 87.9289L0.292893 94.2929ZM51 94L1 94L1 96L51 96L51 94Z" fill="black"/>
<path d="M117.707 25.7071C118.098 25.3166 118.098 24.6834 117.707 24.2929L111.343 17.9289C110.953 17.5384 110.319 17.5384 109.929 17.9289C109.538 18.3195 109.538 18.9526 109.929 19.3431L115.586 25L109.929 30.6569C109.538 31.0474 109.538 31.6805 109.929 32.0711C110.319 32.4616 110.953 32.4616 111.343 32.0711L117.707 25.7071ZM67 26H117V24H67V26Z" fill="black"/>
<rect x="1" width="51" height="51" fill="#5D6EFF"/>
</svg>