<svg width="138" height="100" viewBox="0 0 138 100" fill="none" xmlns="http://www.w3.org/2000/svg">
<circle cx="23" cy="77" r="23" fill="#5D6EFF"/>
<circle cx="69" cy="23" r="23" fill="#C4C4C4"/>
<circle cx="115" cy="77" r="23" fill="#FFA51E"/>
<path d="M88.069 45.0024C87.5181 44.9644 87.0406 45.3802 87.0026 45.9312L86.3834 54.9099C86.3454 55.4608 86.7612 55.9383 87.3122 55.9763C87.8632 56.0143 88.3407 55.5985 88.3787 55.0475L88.9291 47.0664L96.9101 47.6169C97.4611 47.6548 97.9385 47.239 97.9765 46.688C98.0145 46.137 97.5987 45.6596 97.0477 45.6216L88.069 45.0024ZM115.754 76.3432L88.7543 45.3432L87.2462 46.6568L114.246 77.6568L115.754 76.3432Z" fill="black"/>
<path d="M49.9964 45.9126C49.9482 45.3624 49.463 44.9556 48.9129 45.0038L39.9473 45.7903C39.3971 45.8385 38.9902 46.3237 39.0385 46.8738C39.0868 47.424 39.5719 47.8309 40.1221 47.7826L48.0915 47.0836L48.7905 55.053C48.8388 55.6031 49.3239 56.01 49.8741 55.9617C50.4243 55.9135 50.8311 55.4284 50.7829 54.8782L49.9964 45.9126ZM23.7664 77.6426L49.7664 46.6426L48.2341 45.3574L22.2341 76.3574L23.7664 77.6426Z" fill="black"/>
<path d="M88.7074 79.7071C89.0979 79.3166 89.0979 78.6834 88.7074 78.2929L82.3434 71.9289C81.9529 71.5384 81.3197 71.5384 80.9292 71.9289C80.5387 72.3195 80.5387 72.9526 80.9292 73.3431L86.586 79L80.9292 84.6569C80.5387 85.0474 80.5387 85.6805 80.9292 86.0711C81.3197 86.4616 81.9529 86.4616 82.3434 86.0711L88.7074 79.7071ZM53.0002 80L88.0002 80V78L53.0002 78V80Z" fill="black"/>
</svg>